<?xml version="1.0" encoding="UTF-8"?><svg xmlns="http://www.w3.org/2000/svg" width="100%%" height="100%"><line x1="100" y1="100" x2="100" y2="600" stroke="blue" stroke-width="2"/><line x1="100" y1="600" x2="1000" y2="600" stroke="blue" stroke-width="2"/><text stroke="blue" x="120" y="620">Casa</text><rect width="20" height="220" x="120" y="380" stroke="blue" fill="orange"><animate attributeName="height" dur="3s" from="0" to="220"/><animate attributeName="y" dur="3s" from="600" to="380"/></rect><text x="120" y="370">22</text><text stroke="blue" x="240" y="620">Rabat</text><rect width="20" height="200" x="240" y="400" stroke="blue" fill="orange"><animate attributeName="height" dur="3s" from="0" to="200"/><animate attributeName="y" dur="3s" from="600" to="400"/></rect><text x="240" y="390">20</text><text stroke="blue" x="360" y="620">Fes</text><rect width="20" height="180" x="360" y="420" stroke="blue" fill="orange"><animate attributeName="height" dur="3s" from="0" to="180"/><animate attributeName="y" dur="3s" from="600" to="420"/></rect><text x="360" y="410">18</text><text stroke="blue" x="480" y="620">Oujda</text><rect width="20" height="190" x="480" y="410" stroke="blue" fill="orange"><animate attributeName="height" dur="3s" from="0" to="190"/><animate attributeName="y" dur="3s" from="600" to="410"/></rect><text x="480" y="400">19</text><text stroke="blue" x="600" y="620">Tanger</text><rect width="20" height="250" x="600" y="350" stroke="blue" fill="orange"><animate attributeName="height" dur="3s" from="0" to="250"/><animate attributeName="y" dur="3s" from="600" to="350"/></rect><text x="600" y="340">25</text><text stroke="blue" x="720" y="620">Marrakech</text><rect width="20" height="280" x="720" y="320" stroke="blue" fill="orange"><animate attributeName="height" dur="3s" from="0" to="280"/><animate attributeName="y" dur="3s" from="600" to="320"/></rect><text x="720" y="310">28</text><text stroke="blue" x="840" y="620">Ouarzazat</text><rect width="20" height="290" x="840" y="310" stroke="blue" fill="orange"><animate attributeName="height" dur="3s" from="0" to="290"/><animate attributeName="y" dur="3s" from="600" to="310"/></rect><text x="840" y="300">29</text><text stroke="blue" x="960" y="620">Agadir</text><rect width="20" height="200" x="960" y="400" stroke="blue" fill="orange"><animate attributeName="height" dur="3s" from="0" to="200"/><animate attributeName="y" dur="3s" from="600" to="400"/></rect><text x="960" y="390">20</text></svg>